# xmcd
#
# Track frame offsets: 
#        150
#        20537
#        33644
#        48434
#        67945
#        76789
#        95884
#        107152
#        120008
#        133484
#        146809
#        162747
#        177039
#        186692
#        196836
#        208165
#
# Disc length: 2970 seconds
#
# Revision: 0
# Processed by: cddbd v1.5.2PL0 Copyright (c) Steve Scherf et al.
# Submitted via: ExactAudioCopy v0.90b4
#
DISCID=ee0b9810
DTITLE=Ruby Turner - I'm Travelling On
DYEAR=2009
DGENRE=Gospel
TTITLE0=All Aboard - This Train
TTITLE1=Get Away Jordan
TTITLE2=Old Ship Of Zion
TTITLE3=I'm Travelling On
TTITLE4=Live So God Can Use You
TTITLE5=Strength, Power And Love
TTITLE6=The Love Of God
TTITLE7=Oh Mary Don't You Weep
TTITLE8=Lord I Thank You
TTITLE9=Jesus On The Mainline - Atomic Telephone
TTITLE10=Lead Me, Guide Me
TTITLE11=Take My Hand, Precious Lord
TTITLE12=Stand By Me
TTITLE13=Precious Memories
TTITLE14=The Love Of God (Band Version)
TTITLE15=This Train (Ash Howes Radio Mix)
EXTD=
EXTT0=
EXTT1=
EXTT2=
EXTT3=
EXTT4=
EXTT5=
EXTT6=
EXTT7=
EXTT8=
EXTT9=
EXTT10=
EXTT11=
EXTT12=
EXTT13=
EXTT14=
EXTT15=
PLAYORDER=
